# xmcd CD database file
#
# Track frame offsets:
#	150
#	25025
#	46807
#	67345
#	84512
#	103782
#	128587
#	148720
#	163287
#	194272
#	209100
#	234557
#	260202
#	285042
#	305387
#
# Disc length: 4454 seconds
#
# Revision: 0
# Processed by: cddbd v1.4PL0 Copyright (c) Steve Scherf et al.
# Submitted via: CDex 1.51
#
DISCID=dd11640f
DTITLE=Celia Cruz - The Best Of Celia Cruz CD1
DYEAR=2002
DGENRE=Salsa
TTITLE0=Bamboleo
TTITLE1=Quimbara
TTITLE2=Bambarakatunga
TTITLE3=Cucala
TTITLE4=Usted Abuso
TTITLE5=Ritmo tambor y flores
TTITLE6=Sonaremos el Tambo
TTITLE7=Vieja Luna
TTITLE8=Isadora
TTITLE9=El Chisme
TTITLE10=Respetalo
TTITLE11=Toro Mata
TTITLE12=Se que tu
TTITLE13=No me cambie el Camino
TTITLE14=El Celoso
EXTD=YEAR: 2002
EXTT0=
EXTT1=
EXTT2=
EXTT3=
EXTT4=
EXTT5=
EXTT6=
EXTT7=
EXTT8=
EXTT9=
EXTT10=
EXTT11=
EXTT12=
EXTT13=
EXTT14=
PLAYORDER=
